# xmcd
#
# Track frame offsets:
#  150
#  6866
#  21709
#  48177
#  66666
#  99004
#  121884
#  146854
#  168537
#  180755
#  195318
#  212277
#  269549
#
# Disc length: 3858 seconds
#
# Revision: 0
# Processed by: cddbd v1.5.1PL0 Copyright (c) Steve Scherf et al.
# Submitted via: Collectorz.com Music Collector 6.9
#
DISCID=b10f100d
DTITLE=robert earl keen - Live At The Lewis Ginter Botanical Gardens, Richmond, Va - June 9, 2005
DYEAR=2005
DGENRE=
TTITLE0=Intro
TTITLE1=Feelin' Good Again
TTITLE2=Gringo Honeymoon
TTITLE3=What I Really Mean
TTITLE4=The Great Hank
TTITLE5=Wild Wind
TTITLE6=I'm Goin' To Town
TTITLE7=Shades Of Grey
TTITLE8=Amarillo Highway
TTITLE9=That Buckin' Song
TTITLE10=Mr. Wol And Mama Bear
TTITLE11=The Road Goes On Forever
TTITLE12=Ride
EXTD=
EXTT0=
EXTT1=
EXTT2=
EXTT3=
EXTT4=
EXTT5=
EXTT6=
EXTT7=
EXTT8=
EXTT9=
EXTT10=
EXTT11=
EXTT12=
PLAYORDER=
